<svg id="Layer_1" data-name="Layer 1" xmlns="http://www.w3.org/2000/svg" xmlns:xlink="http://www.w3.org/1999/xlink" viewBox="0 0 1295.79 663.67"><defs><style>.cls-1{opacity:0.58;fill:url(#linear-gradient);}.cls-2{fill:url(#linear-gradient-2);}.cls-3{fill:url(#linear-gradient-3);}.cls-4{fill:#fff;}.cls-5{fill:none;stroke-miterlimit:10;stroke-width:2px;stroke:url(#linear-gradient-4);}</style><linearGradient id="linear-gradient" x1="842.94" y1="300.07" x2="846.43" y2="300.07" gradientUnits="userSpaceOnUse"><stop offset="0.46" stop-color="#51b960"/><stop offset="1" stop-color="#3d9c49"/></linearGradient><linearGradient id="linear-gradient-2" x1="642.72" y1="389.32" x2="1074.41" y2="389.32" xlink:href="#linear-gradient"/><linearGradient id="linear-gradient-3" x1="56.55" y1="311.35" x2="679.55" y2="311.35" gradientUnits="userSpaceOnUse"><stop offset="0.49" stop-color="#51b960"/><stop offset="1" stop-color="#3d9c49"/></linearGradient><linearGradient id="linear-gradient-4" y1="364.84" x2="1295.79" y2="364.84" gradientUnits="userSpaceOnUse"><stop offset="0" stop-color="#51b960"/><stop offset="1" stop-color="#3d9c49"/></linearGradient></defs><path class="cls-1" d="M844.35,302.45a19.94,19.94,0,0,1-1.34-3.17c-.56-2.25,2.91-2,3.37,0A3.06,3.06,0,0,1,844.35,302.45Z"/><path class="cls-2" d="M1074.41,394.52A215.93,215.93,0,0,1,935.91,596.1c-.11-4.94.38-8.81,1.43-8.4,2.46,1,4,2.89,7.86-2.18S952.47,558,954,535s-2.76-42.88-3.19-52.47,2.82-10.73,4-7.53,5.68,12,16.06,10.06,11.46-21.76,12.22-32.85-3.65-20-7.44-31.4-7-32.72-9-45.55-6.15-23.45-16.91-30.67-40.28-16.06-44.79-16.7-8.94-2.3-9.37-7.24,3.6-12.35,4.37-14.14.56-3.31,2.21-2.52,3.79-.43,5.36-4.33,3.22-13.78,2.79-16.92-4.22-2.44-5.29-1.28-.71-1.23.6-5.56-.53-10.84-.53-14.91,3.84-2.27,3.84-2.27,1.26-.89.38-2.83-4.38-6.2-4.85-8.45,2,.63,3,1.28-.07-2.56-2.5-6.56-7.69-10.57-14.3-14.24-12.24-4.75-19.36-4.84-11.81,1.67-20.38,7.2-7.54,5.25-11.07,8.39-.4,2.39,2,2.67-.48.94-2.06,3.84a40.88,40.88,0,0,0-4.26,9.91c-1.52,5.16-.44,19.82.77,22.2s1,4.84-.53,5.76-1.43,2.54-.83,6.54,2.12,12,5.62,13.09a5.27,5.27,0,0,0,3.84-.23c1.59,3.22,4.15,7.7,5.47,10.11,1.88,3.41,2.67,9.6,1.25,8.46s-.84,3.48-.23,7.14.07,3.76-2.5,3.46-4.57.31-9,2-4.38,4.63-6.3,5-4.63-1.8-9.94-1.18-18.39,4.38-22.37,7.48-2.55,3.6-.38,3.84-2.07,4.91-5.23,9-17.28,27.56-19.64,31.91-4.94,8.36-6.85,9.31-2.5,0-7,1.74-7.27,4.45-8,6.59-.6,17.39,0,21-5.77,13.45-7.77,23A26.66,26.66,0,0,0,752,474.53c4.76,5.59,10.18,7.56,9.29,8.69s-1,4.46-1,4.46.86,38,10.36,42.51,40.73-.53,45.94-3.14.1,11.35-5.85,26.23c-5.2,13-15.65,39-18.47,46.69-86.74-28-149.49-109.39-149.49-205.45,0-119.2,96.64-215.84,215.85-215.84S1074.41,275.32,1074.41,394.52Z"/><path class="cls-3" d="M679.55,311.5c0,167.41-132.07,304-297.72,311.19h0c-21.38-5.58-16.67-33.9-16.6-46.18s3.47-50.52,7.08-73.58-2-26.17-3.3-27.73-2.14-2.16.43-3.4,5.91-2.61,10.31-19.07-1.36-31.47-5.9-52.75,6.27-31.22,11.43-37.31,19.85-26,19.85-26,18.85-30.77,20.41-40.48-4-23.24-4.2-27.89,2.63.27,4.23,2.58,24.22,20.06,25.12,20.75-.57,2-1.34,2-3.22,2.35-5.87,6.64-6.25,8.7-11.88,20.84,3.93,23,3.93,23c8.66,12.61,20.61,13.66,27.17,10.93s6.11-16.13,3-37.15-13.88-24.21-13.88-26.22,1.46-2.06,3.37-3.88,10.16-8.7,22.21-19.53,19.09-28.55,20-44.54-8.89-29.26-14-35.93-15.29-11.36-19-11-4,2-7.21,5-.93.16-.62-4.54-2-4.09-4-4.49-7.11.23-12,1.09-8.92,5-11.87,6.9-8.54,2.4-10.73,2-7.87-2-9.19.25,1.93,8.06.34,8.87-1.31-1-3.59.91a4.66,4.66,0,0,0-1.49,5.11c.27.49,3.28,2.35,1.61,3.35s-3,.46-5.74-.06-6.08.93-6.47,1.08-1.72.73-1.72.73-4.35,1.78-3.74,5.59,7.18,11.79,8.33,13,0,1.73-1,3,1.32,6.37,1,8.88.31,2.5-1,4.13-2.81-1.83-5.35-2.1-7.18-.83-11-1-7.41,2.47-10.32,4-5.68,3.79-17.27.23-27.15-9.49-34.59-13.65-15.17-14.44-17.09-20.69-2.18-6.24,0-7.45,1.86-6,1.33-9.86-5.68-11.51-8-15.05-.21-5.7,0-9.36.47-3.4,1.31-4.13,3.25-6.09,4.47-9.41,5.55-6.36,4.82-3.8-1.79,4.12,1.69,7.56,23-6.58,26.55-7.78,1.65,1.43,1,2.8-2.63.43-3.49,3.76,11.81,12.42,16.54,15S365,174,368,175s8.85-.16,10.94-2,2-1.51,1.5-3,.78-.83,1.39-3.32,1.12-1.67,3-2.62,3.7-3,6.91-8.33,9.61-12.1,11.14-14.75-.5-2.71-3.63-3.19-3.23,1.92-5.76,4.29-1-3.09-.81-5,2.31-5.08-.58-5-4.84,6.89-4.84,6.89a4.11,4.11,0,0,0-1.8-3.9c-2.19-1.47-2.7,2.28-2.7,2.28s-.08-4.41-3.83-1.48-3.21,5.09-3.61,8.19,2.65,4.52-.47,4.29-1.44,3.23-.09,4.17-2.74,1.45-4.67-1-.85-1.11-.17-4.6-.22-2.79-.8-4.06-4.32-2.23-6.93-2.45,1.39-1.48,3.33-2.58,2.28-2.84,2.56-4.89-6.57-1.89-9.2-1.2-1.53-2.06,1.8-3.18,9.13-2.91,11.65-5.79A19.07,19.07,0,0,1,381,117a30.88,30.88,0,0,0,7.19-2.62c1.94-1.11,4-6.84,6.2-12.23s3.21-15.58-3-23.69-19.21-12-22.78-11.78-10.15,3.18-13.13,4.82-3.09,1.1-4,.11-3.43-1.22-6.21.42-2.63,3.29-2.78,4.73-2.43,1.57-4.12,1.22-7.37.12-18.3.53-20.2.58-23.21.17a27.81,27.81,0,0,0-5.88-.4,26.23,26.23,0,0,1-6.64-.4c-1.62-.45-7.23-1.56-10.08-.92s-1,3,.18,4.19a5.07,5.07,0,0,1,1.75,3.16c.28,1.43-1.64,1.55-3.68,3.46s-3.46.61-3-.82a2.3,2.3,0,0,0-.91-2.44,15.21,15.21,0,0,0-4.62-.79c-2.22.06-3.9,1.43-4,.52s-1.65,0-2.93-.5-3.57-.07-11.47,4.66-7,6.54-9,9.68-4.23,5.57-4.2,4.09-.34-1.9-3.36,0S220.53,111.89,214,120s-7,9.58-9.22,17.13-.45,18.81-.81,22.17-3,4.35-6.92,4.14-5.16.51-4.92-1.91a7.65,7.65,0,0,0-3.56-7.45c-3-1.71-7.19-5.83-10.78-4.75s-5.81,2.77-7.88,8.28-5.66,8.5-10.79,11.92-7.47,5.06-10.09,10.61-.79,8.52.74,10.27,5.28-1.45,7.58-2.88.92-.61-.16,4.93-1,12.31-1.15,16.95-.23,8.93,5.43,11.75,12.52,2.73,15.9.88,3.53-7.25,3.72-10.32a97.53,97.53,0,0,1,1.36-10.48c.62-3.35-1.22-5.39-.92-6.62s10.59-.58,14.61-.13a41.57,41.57,0,0,1,12.81,3.67c3.09,1.68,8.78,3.54,17.89,3s14.54-15,15.58-17.65,2.39,1.26,2,5.24-1.32,19.88,1,35.13,17.85,29.82,24.82,36.7,38,25.84,40.67,26.3.55,4-2.38,4.69-4.37,2.13-7.63,6.45-16.25,23.21-21.56,34.59S262,371.17,256,387.91s-11.52,41.5-10.4,46.25,9.14,8,12.49,9.6,3.16,7.27,3.25,10.29,4.36,84,6.55,114.33a249.28,249.28,0,0,1-.25,38.08c-122.78-41.78-211.1-158.06-211.1-295C56.55,139.46,196,0,368.05,0S679.55,139.46,679.55,311.5Z"/><path class="cls-4" d="M843,299.28c-.56-2.25,2.91-2,3.37,0a3.06,3.06,0,0,1-2,3.17A19.94,19.94,0,0,1,843,299.28Z"/><path class="cls-5" d="M1.08,662.84c-2.62-1.71,62.54-32.84,122.16-13s70.76-5,87.8-6.34,34.72,9.83,44.55,1.32,15.48-39.31,12.72-71.48c-1.6-18.8-3.3-45.28-3.3-47.51,0-3.31-4.14-70.73-3.62-72.69s-2.85-9.08,1.34-11.27c6.26-3.27,53.29,8.8,64.22,15.92,4.75,3.1,13.84,8.5,13.84,8.5l6.34,4.32s21,11.4,29.23-7.22c15.65-35.2-16.83-71.09,3.06-93.88,14.31-16.41,38.37-47.61,41.61-55.22,11.12-26.15-1.8-37.45-.06-56.33,1.2-13.07,9.63-36.67,15-43,8.61-10,12-16.8,19.59-29.09,2.52-4.09,4-9.27,9.44-9.18,19.21.3,62,53.92.32,102.29-20.73,16.27-53.38,50.69-22.12,72,37.64,25.65,26.79-44.45,11.58-56.25C425.4,272,419.5,270.18,423.33,255.47c3.43-13.19,12.91-36.3,18.34-51.11a15.67,15.67,0,0,1,2.09-3.92c6.67-8.92,21.14-29.4,6.81-27.62a62.16,62.16,0,0,1-8,.78c-6.21,0-10.76,6.21-15.52,7.86s-7.86,1.14-10.85.83c-4.38-.45-9-1.45-7.45,3.87.75,2.64,1.86,6-.21,5.75-2.79-.31-4,1.65-4.65,3.93s5,5.38.2,5.79a7.16,7.16,0,0,1-3.05-.21c-3-1.1-8.42.76-11.32,2.69-9,6,18.81,32,23.19,25,2.07-3.31-18.5-11.24-17.76-3a84.73,84.73,0,0,0,1.46,8.59l-.9,2c0,2.22-2.21-1-3.18-1-4.08-.36-11.47-1.5-13.57-1.3-10.45,1-38.22,21.63-21.58,28.93,15.89,7,31.8,21.68,27.16,41.39-1.65,7-7.23,10.75-17.37,10.13s-21.82-9.93-28.95-13.75c-44.55-23.89-94.45-41.89-94.31-98.91,0-6.52.39-13.7.81-17.39,1.1-9.83,24.52-10.23,28.45-13.67.38-.34.5-1.41.45-2.86-.15-4.81-2.11-13.79-2.11-13.79l-.23-2.43s-.24-1.82-.4-4.76c-.32-5.6,6.42.45,9.73,2.23,3.46,1.85,10.13,6.11,13,1.77,3.77-5.63,10.62-22.35,12.59-27,2.91-6.75,6.22-13,7.39-20.56.75-4.9.74-10.29-2.64-13.89-5.35-5.68-17.46,2.46-18.24-6-.15-1.57-.48-1.83-.48-1.83l-1-.81C287.85,77,269.77,74.79,273.28,80c3.78,5.56,12.6-2.86,21-1.63,3.52.51,8.41,1.18,11.45,1.42,9.46.76,48.68-9.67,37.54,9.67-3.51,6.1-6.21,13.24-5.4,19,1.15,8.12,6.7,20.66,14.08,21.89,5.43.91,21.5-7.25,24.51-10.85,3.86-4.64,10.19-4.62,14.52-13.41,4.19-8.51,5.11-21.08-2.76-27.76-4.74-4-11.46-7.51-15.95-8.53-7.56-1.72-14.61.1-12.22,11,3.43,15.54,17.29,44.21,28.18,32.87,5.48-5.7,10.1-21.51,7.8-28-1.32-3.73-4.65-8.18-12.35-13.62-20.2-14.3-34.07,6.93-39.7,5.62-3.1-.72-1.24-2.79.83-4.65,3.17-2.86,11-.91,7.31,3-1.32,1.39-3.65,2.89-5.24,4.25-8.68,7.44-13.22,21.06-11,32.41,2,10.14,7.18,21.68,13.79,21.68a17.88,17.88,0,0,0,5.17-.1c2.17-.52,4.55-2.28,6.92-2.49,7.86-.68,8.57,2.87,2.31,5.94s-18.28,5.83-20.19,6.37c-2.59.72-5.17,2.17-7.35,2.59s-3.62.93-6.72,3.3,7.55,11.9,12.31,14.79,16,6.93,16,6.93l2,1.1,1.44.12L368,175c2.14.74,7.29-.68,10.28-1.71,3.69-1.26,4.58-4.56.89-5.21a41.52,41.52,0,0,1-7.45-2.28c-7.11-2.37,1.62-10.31,2.17-11.06,1.14-1.55,4.66-3.52,3.93-5-2.07-4.14-8.28,1.11-2.38,3,2.59.83,7.14-1.24,6.31-2.79s-4.86-2.79-6.2-5.17c-1.46-2.57,3.06-12.22,5.81-8.41,2.07,2.87,3.79,10.87,1.94,10.79-1.63-.07-1.61-4.78-1-8.25,1-5.42,4-5.47,4.9,0,.51,2.93,1,8-.58,7.31s1.23-8.62,3.53-12.33c1.68-2.7,2.74-2.54,2.65.78-.07,2.65-.81,6.54-.65,8.1.32,3.16,1.1,8.7-2.07,6.92-3-1.69,2.54-7,5.88-10,5.72-5.15,10.76,0,3.18,6a17.37,17.37,0,0,0-4,3.92c-2.17,3.52-6.62,12.52-8.79,13.86s-11.89,1.86-11.58-.62c.28-2.24,12.95,1.44,6.8,5.43-3.52,2.29-10.57,4.24-14.45,2.12-4.55-2.48,1.23-17.17,2.06-20.06,5.49-19.22-21.69-2.46-35.16-14.89-2.69-2.48-4.34-9.72-7.65-13.44-6-6.71-18.65,12-20.89,17.58-9.46,23.66,11.89,10.23,25.23,5.79,4.35-1.45,11.38-1.87,13.24-3.31s.41-7.24-2.9-8.69c-15.19-6.64-2.63-8.48-11-17.16-4.75-5-15,4-16.23,4.86-10.27,6.84-12.41,22.81-17.39,34-3.88,8.7-8.68,4-14.77.16-2.28-1.45-3.93.73-5,3.73-1.55,4.51,1.81,19.46,2.57,25.27.21,1.6.8,7.44,4.05,5,1.08-.82,4.86-6.15,4.55-7.8s-1.29-.31-2,1-.15,9,.62,10.08,2,1.19,2.28-.16,4.39-7.7,4.24-9.35-.62-1.71-1.61-1.66-.1,3.47-.51,4.81-.21,8.07,1.75,7.45,1.14-3.42,1.14-5.07,5.19-5.88,2.07-8.38,1.45,13,1.65,15.41,3,1.65,3.72,0,.42-8-1.34-12.31c-2.89-7.14-9.45-11.64-7.81-17.1.76-2.53,1.81-5.47.4-7.35-6.21-8.28-22.85-5.08-21.85-16.48.88-10.07,7.26-30.83,9.32-33.84,1.12-1.63,2.61-3.4,3.84-4.89,6.8-8.32,6.47-21.51,3.05-13.38-1.34,3.2-2.43,8.49-3.38,9.24-1.45,1.14-10.55,5.69-6.93,6.62,2.91.75,5.55-9.53,7.06-14.56.8-2.64,1.68-12.69-2.29-5.3-1.69,3.12-3.4,9.82-9.94,12.45-4.35,1.74-7.7,4.06-6.21,4.93,2.35,1.37,8.3-9.47,11.43-14.29,2.63-4,1.64-6.61-2.36-3.08-3.43,3-9.2,9.89-12,11.72-2.31,1.52-5.89,3.62-4.53,5,2.11,2.17,3-5,4.47-6.89s3.74-4.84,5.32-6.85c1.94-2.45,3.31-5-1.74-5.55-2.9-.31-9.1,2.69-11,6.21s-5.28,18.2-4.87,21.1c.34,2.38-.86,24.23-1.41,33.8-.5,8.61-3.67,13.62-7.28,1.71-3.36-11.07-8.25-33.35-8.8-39-.59-6.1,1.86-11.1-5.49-3-5.61,6.17-14.37,17.39-17.88,21.74-9.72,12-.54,35.64-8.07,36.81-13.27,2.08-23.33.51-35.16,7.76-3.21,2-4.45,3-7.14,8.48s-1.13,6.72-3.72,9.82-2.89,1.87-5.27,1.45c-4.1-.71.38-12.8,3.68-16.15a63.64,63.64,0,0,1,10.79-8.15c2.9-1.86,5.17-8,6.72-10.44s4.24-7.14,8.69-6.31c5.07,1,19.39,9.71,8.89,16.34-6.33,4-13.93-.31-16.33,5.76-1.52,3.85-1.95,10.31-2.39,12.85-2.09,12.16,13.43,9.53,12.73,16.13-.29,2.74-1.61,7-1.46,11.28.48,14-15.31,13.28-22.54,7.65-3.73-2.9-2.28-16.34-2.07-19.44s2.48-10.75,2.9-13.86.42-4.19,2.69-7.5,13-11.08,13.42-2.72c.16,3.14-1.22,7.24-1.22,10.64,0,4.55,5.89,7.65,9.71,7.45a66.39,66.39,0,0,1,20.39,2.19c8.68,2.14,14.42,2.69,21.94-6.57,6.27-7.71,11.72-22,16.69-28.43,1.83-2.38,4.38-3.91,4.16,1.16a76.73,76.73,0,0,1-3.72,18.26c-3.42,10.56-9.12,21.56-20.37,20.83-2.33-.15-21.06-2.46-9.77-5.63,12.4-3.49,19-23.47,25.89-32.75,3.13-4.23,6.45-6.87,5.43-14.06-1.51-10.52-9.21-30.65-10.06-40.29-.51-5.77.84-11.41,5.29-15.77,6.59-6.47,24.17-15.14,19.1-4.52-1.34,2.82-3.8,6-4.22,8-2.05,9.47-4.44,54.65-4.68,60.69-.26,6.61-1.19,14-1.21,18.17,0,14.44,20.93-7.1,25.06,2,2.47,5.48,5.55,22.68,6.24,27.22,1.84,12.09.18,22.09,15,28.69,5.14,2.3,13.36,5.16,17.27,7,19.6,9.39,26.4,12.65,48.42,18.38,0,0,4.14,1.24,8.48,2.48,2.72.77,7.53,2,11.87,1.71,14.14-1.06,10.62-22.74,3.64-25.7-4.28-1.82-8.81.68-13.12,2.39-6.2,2.45-14.79-.31-22-1.05-8.13-.82-32.9-11.32-39.09-18.42a107.86,107.86,0,0,1-10.74-15.69c-5.65-9.68-16.91-9-16.18,2.68.65,10.28,1.34,16.62,12.13,22.65,7,3.93,10.55,4.76,16.75,7,2.78,1,58.61,21.9,59.19,22.27,30.27,19.5,20.22,77.62-13.18,60-9.1-4.81-23.84-16.28-30.68-20.33-9.14-5.41-19.45-9.88-23.57-4.87-6.8,8.25-19.92,30.69-23.52,36.67-14,23.32-36.5,84.64-35,104.53.18,2.38.76,2.49.76,2.49l5,2.89c14.28,8.32,26.1,8.91,42.65,9.81,19,1,79.64,12.86,79.13,35.07-.27,11.49-3.35,57.43-3.35,57.43s-16.56,71.48,12,80.06,75.3-40.68,126.37-15S599.89,633.31,623.83,628c68.82-15.21,140.65,12.74,150.38,6.61S737,618.77,749,616.65s66,16.5,74.44,12.06-2.22-32.25.32-34.05,35.73,9,55.51,2.64,16.91-31.29,38-20.19,24.84,15.22,29.81,5.39,8.92-43.6,6.38-64.18-2.08-47.55-3.77-47.83-.18,6.1-1.55,7.76-4.48,1.51-4.83.42-.17-15.4-1.62-14.77-.92,15.05-1.23,16.35-6.42,1.27-6.73-.63,1.19-18.12-.67-18.29-1.45,16.85-2.3,18.08-6.62,1.34-7.15-.46-1.3-22.49-.11-23.12,22.07,6.66,24.08,6.66,15.47-10,18.64-19.35-6.34-16.28-5.5-22.2,1.32-20.25-2.43-20.83-5.34,5.81-6,14.27-2.59,12.69-5.12,13.75-25.22-7.4-25.54-8.36-.85-19-.63-20.72,13.11-23.47,14.8-23.58,8.74,1.24,8.6,2.5-12.69,19.88-14,21.86-.28,17.9.35,19.38,7.48,3.81,8.11,2.54-.42-17.2.21-19.67,14-25.09,14.66-26.29,6.21-.78,6.56.28,1.48,22.2,0,22.52-1.72-17.34-2.78-16.95-9.73,18.33-11.21,21.92.55,19.76-.35,20.6-4.39,0-4.6-1.58.21-17.77.37-19,12.64-22.42,12.53-23.58-6.82-1.48-7.82-.53-13.12,20.41-13.64,21.94.61,19.58-.23,20.32-7.55-2.47-9.7-3.6-4.82-1.16-5.49,2.33,3.7,8.49,8.31,11.31,14.52,4.51,12,5.68-16.77-4.73-17.76-6.63-5.85-1.48-4.76,2.75,10.47,7.61,13.22,9.38-8.25-1-11.07-2.75-3.56.77-2.54,3.31,11,5,10.54,6.13-6.59-1.65-7.79-.21,5.47,4.79,18.52,6.64,16.09,10.28,19,18.67,8.88,15,18.89,8.53,10.86-36.87,7.9-42.93-12.51-6.21-12.41-4.09,11.56,6.06,11.35.49-8.53-20.65-11.63-47-8.6-39.06-19.17-45.4-46.24-18.89-46.81-16.49,18.33,6.34,18.33,20.16-35,27.63-52.3,18.32-18.08-28.09-18.08-39.19-1.77-5.83,10.52,1.64c15.38,9.36,31.77-9.3,31.08-11.16s-11,13.82-26.17,9.36-21.84-26.43-22.57-28.18c-.65-1.55,1.67-1.26,1.95,0s-1,5.82-5.14,3.63-7.68-17.79-4.79-19.63,6.83,9.87,7.54,7.76-1.69-13.75,1.48-19,.21-12.47,4-17,10.15-9.38,18-3.53,17.55,10.58,16.92,8-4.65-5.43-1.83-4.87,7.68,4.52,10.15,4.52,2.68-3.53,4-1.63,5.08,31.94,6.77,30,4.51-18.68,2.82-25.94,4.58-.84,4.65-2.89-6.2-10.57-6.13-11.7,4.3,3.74,4,1.2-13.54-24.67-32.71-25.17S839.13,238.55,838.7,240s5.57.63,4.3,1.69-6.76,5.92-7.61,15.58,1.27,23.82,2.12,22.13,5.28-31.51,11.2-35.81,14.6,2,16.78.71-7.68-4-5.78-7.19,21-9.87,19.53-7.9-12.06,5.08-11.49,7.54,21,3.6,19.45,5.71-11.7,2.68-9.87,4.3,19.6,1.62,22.56,8,1.89,23.74,2.84,26.27,6.08-3.91,7.19,1.43-1.17,20.57-5.92,20.72-5.45-6.76-3.76-7,2.54,5.55-1.58,13.27-4,15.12,1.3,20,7.12,11.56,5.78,20.09-9.87,17.76-28.83,11.7-23.47-28.83-28.34-29.89-14,4.09-13.18,5.92,9.55,3.28,13.68,14.28,5.65,21.09,4.75,22.09-14.64,8-20.14,7.3-6-12.79-12-24.07-14.6-10-20.52-8.46-2.32-4.3,7.76-7.54,17.92-5.29,24-2.65,12,10.68,11.52,12.06-17,6.39-18.55,5.44-8.62-12.9-15.81-11.95-21.11,21.56-32.67,42.56-19.74,46.53-21.85,48.78-2.58-24.88-.36-29.43,11.11-7,11.21-6-9.83,28-15.22,38.07-11.42,25.69,6.76,41.34,50.23-19.35,51.92-16-.27,16.38-1.75,23.2.64,9.89,2.38,8.52,21.36-45.05,21.36-47-12.84,7.56-14,9.46-5.26,16-6,20.05,11.24,27.95,13.25,31.65-5.92,16.08-9.83,19.14-37.43,3.91-44.52,1.8-7.4-8.14-6.92-8.56,42.5-5.34,43-6.67-3.49-12.9-6.87-14.06-32.62,5.55-37.38,8.88-1.75,9.57.26,8.2-4-28.92-2.43-30.3,7.47,3.6,24.46-5.35,35.25-33.34,44.69-38.63.21-14.17,1.34-15,10.35,6.72,5.38,12.85-23.78-23.42-25.89-27.51S780.2,432,780.06,433.59s28.93-16,35.81-25.45,5.34-21.83,7.19-24,4.17-4.12,6-2.64.9,6,3.39,5.5,12-6.14,19.5-9.41,11.42-4.39,11.32.68-10.84,6.19-9.15,7.67,7.09-3.17,9.57-.05-6.13,6.6-7.14,8.77,6.14-2.69,7.25-.42-2.86,5.55-4.13,8.62,2.81-.06,2.44,3.12-9,10.62-14.86,14.48-18.5,6-21.82,7.63,7.4-12.4,14.17-1.27.78,93.83-1.34,101.65,9.52,14.8,10.36,12.48,5-111.87,2.54-115.57-7.08-.11-7.19,1.9-3.73,54.81-6.41,62.84-16.92-7.05-17.2-1.55,13.25,14.81,10.15,24.67-8.6,14-10.86,18.47-12.12,29.47-15.08,38.49,24,23.4,45,20.86,41.73-40.74,57.1-50.61S885.37,568.65,891,570.2s38.63-30.59,39.33-25.09S913.42,562.3,915,568.51s21.15,8.6,22.14,14.38,2.78,45.29-2.61,49.09-7.3-22.83,40-11.73,67.25,22.84,109.12,4.76,82.47-47.27,211.89-5.4"/></svg>